<!-- Generated by IcoMoon.io -->
<svg version="1.1" xmlns="http://www.w3.org/2000/svg" width="32" height="32" viewBox="0 0 32 32">
<title>apple-pay</title>
<path d="M5.844 11.069c-0.375 0.45-0.975 0.806-1.575 0.75-0.081-0.606 0.219-1.25 0.563-1.65 0.375-0.456 1.031-0.787 1.563-0.813 0.069 0.631-0.175 1.25-0.55 1.713v0zM6.394 11.938c-0.869-0.050-1.612 0.5-2.025 0.5-0.419 0-1.050-0.475-1.737-0.456-0.894 0.012-1.725 0.519-2.175 1.338-0.944 1.631-0.244 4.044 0.663 5.369 0.444 0.656 0.975 1.375 1.675 1.356 0.663-0.025 0.925-0.438 1.725-0.438 0.806 0 1.037 0.438 1.737 0.419 0.725-0.012 1.181-0.656 1.625-1.313 0.506-0.744 0.712-1.475 0.725-1.512-0.012-0.019-1.4-0.55-1.412-2.169-0.013-1.356 1.094-2 1.137-2.037-0.625-0.931-1.606-1.031-1.938-1.056v0zM11.412 10.106v9.856h1.512v-3.369h2.094c1.912 0 3.256-1.325 3.256-3.244s-1.319-3.237-3.206-3.237l-3.656-0.006zM12.925 11.4h1.744c1.313 0 2.063 0.706 2.063 1.956s-0.75 1.956-2.075 1.956h-1.738v-3.912zM21.031 20.038c0.956 0 1.831-0.488 2.238-1.256h0.031v1.181h1.4v-4.906c0-1.419-1.125-2.338-2.863-2.338-1.606 0-2.794 0.931-2.831 2.206h1.363c0.113-0.606 0.669-1.006 1.431-1.006 0.925 0 1.444 0.438 1.444 1.238v0.544l-1.887 0.113c-1.762 0.106-2.706 0.831-2.706 2.1 0 1.281 0.981 2.125 2.381 2.125v0zM21.444 18.869c-0.806 0-1.325-0.394-1.325-0.988 0-0.619 0.494-0.988 1.438-1.044l1.681-0.106v0.556c0.006 0.925-0.769 1.581-1.794 1.581v0zM26.575 22.644c1.475 0 2.169-0.575 2.769-2.3l2.656-7.531h-1.538l-1.781 5.819h-0.031l-1.781-5.819h-1.581l2.563 7.175-0.137 0.438c-0.238 0.738-0.606 1.019-1.275 1.019-0.119 0-0.35-0.012-0.444-0.025v1.181c0.087 0.025 0.462 0.038 0.581 0.044v0z"></path>
</svg>
