<!-- Generated by IcoMoon.io -->
<svg version="1.1" xmlns="http://www.w3.org/2000/svg" width="32" height="32" viewBox="0 0 32 32">
<title>google-pay</title>
<path fill="#5f6368" d="M15.131 15.856v3.725h-1.181v-9.2h3.131c0.756-0.019 1.488 0.269 2.031 0.794 0.55 0.494 0.856 1.2 0.85 1.944 0.019 0.744-0.294 1.456-0.85 1.95-0.55 0.525-1.225 0.781-2.031 0.781l-1.95 0.006zM15.131 11.512v3.213h1.981c0.438 0.012 0.863-0.162 1.169-0.475 0.306-0.294 0.475-0.7 0.475-1.125s-0.169-0.831-0.475-1.125c-0.3-0.325-0.725-0.5-1.169-0.488h-1.981zM22.688 13.081c0.875 0 1.563 0.231 2.069 0.7s0.756 1.106 0.756 1.919v3.881h-1.131v-0.875h-0.050c-0.488 0.719-1.137 1.081-1.95 1.081-0.694 0-1.275-0.206-1.738-0.619-0.456-0.381-0.712-0.95-0.7-1.544 0-0.65 0.244-1.169 0.738-1.556s1.15-0.575 1.969-0.581c0.7 0 1.281 0.131 1.731 0.387v-0.269c0-0.406-0.175-0.787-0.488-1.044-0.313-0.281-0.719-0.438-1.137-0.431-0.663 0-1.181 0.281-1.569 0.838l-1.044-0.656c0.575-0.819 1.419-1.231 2.544-1.231zM21.156 17.65c0 0.306 0.144 0.594 0.394 0.769 0.262 0.206 0.587 0.313 0.919 0.306 0.5 0 0.975-0.2 1.331-0.55 0.394-0.369 0.587-0.8 0.587-1.3-0.369-0.294-0.881-0.438-1.544-0.438-0.481 0-0.881 0.119-1.2 0.35-0.325 0.238-0.488 0.525-0.488 0.863zM32 13.287l-3.944 9.069h-1.219l1.462-3.175-2.594-5.894h1.281l1.875 4.519h0.025l1.825-4.519h1.288z"></path>
<path fill="#4285f4" d="M10.356 15.050c0-0.363-0.031-0.719-0.094-1.075h-4.981v2.038h2.856c-0.119 0.656-0.5 1.238-1.056 1.606v1.319h1.706c0.994-0.919 1.569-2.275 1.569-3.887z"></path>
<path fill="#34a853" d="M5.281 20.219c1.425 0 2.625-0.469 3.5-1.275l-1.706-1.319c-0.469 0.313-1.075 0.5-1.794 0.5-1.381 0-2.55-0.931-2.969-2.181h-1.75v1.362c0.9 1.781 2.725 2.906 4.719 2.913z"></path>
<path fill="#fbbc04" d="M2.319 15.944c-0.219-0.656-0.219-1.369 0-2.025v-1.363h-1.756c-0.75 1.494-0.75 3.25 0 4.744l1.756-1.356z"></path>
<path fill="#ea4335" d="M5.281 11.738c0.756-0.012 1.481 0.275 2.025 0.794l1.506-1.506c-0.956-0.9-2.225-1.394-3.537-1.375-2 0-3.825 1.125-4.719 2.912l1.756 1.363c0.425-1.256 1.594-2.188 2.969-2.188z"></path>
</svg>
