<!-- Generated by IcoMoon.io -->
<svg version="1.1" xmlns="http://www.w3.org/2000/svg" width="32" height="32" viewBox="0 0 32 32">
<title>Logo</title>
<path d="M18.157 10.838l-0.608-0.464c-0.095-0.077-0.216-0.113-0.338-0.101s-0.233 0.072-0.311 0.166l-8.408 9.656 0.13 0.144 2.082-1.92c-0.069-0.028-0.127-0.079-0.162-0.145s-0.047-0.142-0.032-0.215c0.015-0.073 0.055-0.139 0.113-0.186s0.131-0.072 0.206-0.070c0.067 0 0.133 0.022 0.187 0.062s0.094 0.096 0.114 0.161l2.745-2.546c0.042-0.034 0.094-0.052 0.148-0.052s0.106 0.018 0.148 0.052l0.139 0.102c0.047 0.034 0.105 0.049 0.163 0.042s0.11-0.035 0.148-0.079l3.59-4.026c0.038-0.040 0.067-0.088 0.085-0.14s0.025-0.108 0.019-0.163c-0.005-0.055-0.022-0.108-0.050-0.156s-0.065-0.089-0.11-0.121z"></path>
<path d="M22.108 13.556c-1.84 1.309-3.901 2.275-6.085 2.852-2.167 0.551-4.384 0.881-6.618 0.983 0.045 0.329 0.126 0.653 0.241 0.965 1.261 1.141 10.759-0.807 12.614-3.061 0.394-0.468-0.153-1.739-0.153-1.739zM10.829 18.319c-0.062 0-0.123-0.018-0.175-0.053s-0.092-0.084-0.116-0.142-0.030-0.121-0.018-0.182c0.012-0.061 0.042-0.117 0.086-0.161s0.1-0.074 0.161-0.086c0.061-0.012 0.125-0.006 0.182 0.018s0.107 0.064 0.142 0.116 0.053 0.113 0.053 0.175c0.001 0.042-0.007 0.083-0.023 0.121s-0.039 0.074-0.068 0.103c-0.029 0.029-0.064 0.053-0.103 0.068s-0.080 0.023-0.121 0.023z"></path>
<path d="M1.855 12.888l0.074-0.32 1.206 0.274c0.099 0.184 0.161 0.386 0.181 0.594 0.023 0.22 0.009 0.443-0.042 0.659-0.060 0.299-0.198 0.578-0.399 0.807-0.192 0.217-0.438 0.377-0.714 0.464-0.284 0.088-0.587 0.099-0.877 0.032-0.291-0.063-0.558-0.204-0.774-0.408-0.213-0.196-0.365-0.449-0.441-0.728-0.083-0.304-0.083-0.624 0-0.928 0.050-0.227 0.139-0.444 0.264-0.64 0.118-0.178 0.277-0.326 0.464-0.431l0.167 0.255c-0.16 0.098-0.297 0.229-0.403 0.384s-0.177 0.331-0.21 0.516c-0.057 0.24-0.053 0.491 0.014 0.728 0.062 0.226 0.186 0.429 0.357 0.589 0.176 0.17 0.396 0.287 0.635 0.339 0.232 0.065 0.478 0.065 0.71 0 0.222-0.073 0.422-0.203 0.58-0.376 0.162-0.187 0.274-0.412 0.325-0.654 0.076-0.294 0.057-0.604-0.056-0.886l-1.062-0.269z"></path>
<path d="M4.48 9.971l-1.081 1.442 0.464 0.83-0.213 0.288-1.716-3.13 0.199-0.274 3.492 0.751-0.218 0.288-0.928-0.195zM4.174 9.897l-1.855-0.417 0.928 1.665 0.928-1.248z"></path>
<path d="M4.174 6.98l0.278-0.209 1.767 2.365 1.456-1.090 0.176 0.237-1.73 1.294-1.948-2.597z"></path>
<path d="M7.096 5.046l0.311-0.139 1.224 2.681 1.656-0.751 0.121 0.269-1.966 0.895-1.345-2.954z"></path>
<path d="M13.208 6.112l0.070 0.292-2.235 0.524-0.742-3.163 2.17-0.506 0.065 0.288-1.855 0.431 0.264 1.122 1.632-0.385 0.070 0.288-1.637 0.38 0.278 1.173 1.92-0.445z"></path>
<path d="M16.394 6.228l-0.774-1.020c-0.086 0.005-0.173 0.005-0.26 0l-0.872 0.028 0.032 1.030h-0.343l-0.107-3.246 1.234-0.005c0.349-0.032 0.698 0.062 0.983 0.264 0.12 0.097 0.217 0.22 0.283 0.36s0.099 0.293 0.097 0.447c0.014 0.229-0.047 0.457-0.172 0.649-0.133 0.185-0.322 0.323-0.538 0.394l0.812 1.085-0.376 0.014zM16.070 4.703c0.083-0.076 0.148-0.171 0.189-0.276s0.057-0.219 0.047-0.331c0.002-0.113-0.021-0.225-0.068-0.328s-0.118-0.194-0.205-0.265c-0.214-0.145-0.471-0.212-0.728-0.19l-0.881 0.032 0.056 1.623 0.863-0.028c0.263 0.010 0.521-0.074 0.728-0.237z"></path>
<path d="M18.848 5.366l-0.167 1.108-0.339-0.051 0.172-1.090-0.96-2.319 0.362 0.056 0.821 1.976 1.391-1.637 0.325 0.070-1.605 1.888z"></path>
<path d="M23.434 5.171l0.403 0.524-0.176 0.139-0.403-0.538-0.255 0.608-0.195-0.083 0.26-0.608-0.668 0.088v-0.223l0.659-0.074-0.408-0.524 0.181-0.139 0.357 0.529 0.25-0.612 0.199 0.083-0.237 0.621 0.668-0.093v0.227l-0.635 0.074z"></path>
<path d="M24.983 8.909c-0.11-0.169-0.178-0.361-0.199-0.561l0.274-0.121c0.021 0.184 0.081 0.361 0.176 0.519 0.104 0.178 0.239 0.335 0.399 0.464 0.165 0.158 0.376 0.261 0.603 0.292 0.082 0.008 0.164-0.005 0.24-0.036s0.143-0.081 0.196-0.144c0.038-0.042 0.068-0.092 0.086-0.147s0.025-0.112 0.021-0.169c-0.015-0.113-0.053-0.222-0.111-0.32-0.087-0.142-0.182-0.28-0.283-0.413-0.123-0.162-0.235-0.332-0.334-0.51-0.076-0.133-0.117-0.283-0.121-0.436-0-0.172 0.064-0.338 0.181-0.464 0.101-0.122 0.234-0.214 0.385-0.264 0.168-0.049 0.347-0.049 0.515 0 0.217 0.071 0.417 0.184 0.589 0.334 0.143 0.119 0.269 0.256 0.376 0.408 0.099 0.141 0.172 0.298 0.218 0.464l-0.264 0.139c-0.046-0.155-0.115-0.301-0.204-0.436-0.089-0.12-0.193-0.228-0.311-0.32-0.163-0.158-0.373-0.257-0.598-0.283-0.083-0.007-0.166 0.007-0.242 0.040s-0.143 0.085-0.194 0.15c-0.039 0.042-0.069 0.092-0.088 0.146s-0.025 0.112-0.019 0.169c0.011 0.117 0.049 0.23 0.111 0.329 0.065 0.107 0.158 0.246 0.283 0.413 0.124 0.158 0.236 0.326 0.334 0.501 0.077 0.133 0.12 0.283 0.125 0.436 0 0.172-0.064 0.338-0.181 0.464-0.101 0.124-0.237 0.216-0.39 0.264-0.168 0.051-0.347 0.051-0.515 0-0.218-0.071-0.42-0.184-0.594-0.334-0.187-0.163-0.344-0.358-0.464-0.575z"></path>
<path d="M29.649 9.586l-0.654-0.928 0.241-0.172 1.507 2.152-0.241 0.172-0.654-0.928-2.421 1.693-0.195-0.283 2.416-1.707z"></path>
<path d="M28.61 13.398c0.083-0.28 0.244-0.531 0.464-0.723 0.215-0.193 0.478-0.326 0.761-0.385 0.288-0.066 0.589-0.055 0.872 0.032 0.273 0.090 0.517 0.25 0.71 0.464 0.2 0.23 0.336 0.508 0.394 0.807 0.077 0.293 0.077 0.602 0 0.895-0.085 0.279-0.246 0.53-0.464 0.723-0.221 0.198-0.49 0.335-0.78 0.399s-0.592 0.051-0.875-0.037c-0.275-0.086-0.521-0.246-0.71-0.464-0.199-0.229-0.335-0.505-0.394-0.802-0.071-0.3-0.063-0.613 0.023-0.909zM29.217 14.873c0.155 0.176 0.355 0.306 0.58 0.376 0.231 0.067 0.475 0.075 0.71 0.023s0.453-0.162 0.635-0.32c0.171-0.158 0.298-0.358 0.366-0.58 0.065-0.235 0.071-0.482 0.018-0.719s-0.162-0.459-0.32-0.644c-0.162-0.177-0.368-0.307-0.598-0.376-0.234-0.062-0.48-0.062-0.714 0-0.236 0.045-0.455 0.156-0.631 0.32-0.173 0.158-0.299 0.36-0.366 0.584-0.063 0.235-0.063 0.483 0 0.719 0.051 0.23 0.161 0.443 0.32 0.617z"></path>
<path d="M28.257 18.783l1.201-0.464c0-0.083 0.028-0.167 0.051-0.255l0.227-0.839-0.983-0.255 0.088-0.329 3.135 0.839-0.315 1.173c-0.071 0.342-0.262 0.648-0.538 0.863-0.127 0.088-0.273 0.146-0.425 0.168s-0.309 0.009-0.456-0.038c-0.224-0.049-0.424-0.172-0.569-0.35s-0.223-0.4-0.224-0.629l-1.28 0.464 0.088-0.348zM29.811 18.912c0.054 0.099 0.128 0.185 0.217 0.254s0.19 0.12 0.299 0.149c0.109 0.029 0.222 0.036 0.334 0.020s0.218-0.054 0.315-0.113c0.205-0.164 0.344-0.396 0.394-0.654l0.223-0.835-1.572-0.422-0.223 0.835c-0.086 0.249-0.081 0.52 0.014 0.765z"></path>
<path d="M26.592 21.769l-0.237-0.181 1.391-1.832 2.588 1.962-1.345 1.776-0.237-0.181 1.136-1.498-0.928-0.7-1.016 1.34-0.232-0.176 1.039-1.34-0.96-0.728-1.201 1.558z"></path>
<path d="M25.507 25.465l-0.663 0.037v-0.223l0.663-0.005-0.357-0.552 0.181-0.116 0.352 0.557 0.288-0.621 0.199 0.107-0.315 0.584 0.663-0.037v0.227h-0.672l0.357 0.552-0.181 0.116-0.352-0.557-0.306 0.603-0.195-0.111 0.339-0.561z"></path>
<path d="M19.478 25.094l0.561 0.311c0.094-0.181 0.225-0.339 0.385-0.466s0.345-0.217 0.542-0.267c0.184-0.057 0.378-0.078 0.57-0.060 0.167 0.013 0.327 0.070 0.464 0.167 0.124 0.093 0.215 0.223 0.26 0.371 0.056 0.183 0.046 0.38-0.028 0.557-0.116 0.24-0.273 0.458-0.464 0.645 0.153 0.082 0.295 0.183 0.422 0.301 0.087 0.090 0.153 0.2 0.19 0.32 0.024 0.094 0.025 0.191 0.004 0.286s-0.064 0.182-0.125 0.257c-0.124 0.178-0.309 0.305-0.519 0.357-0.185 0.071-0.39 0.071-0.575 0-0.082-0.035-0.155-0.089-0.213-0.158s-0.099-0.149-0.121-0.236c-0.049-0.153-0.037-0.319 0.032-0.464 0.106-0.211 0.246-0.403 0.413-0.57l-1.118-0.621c-0.043 0.218-0.052 0.442-0.028 0.663h-0.283c-0.019-0.272 0.012-0.546 0.093-0.807l-0.584-0.325 0.121-0.26zM20.285 25.558l1.229 0.682c0.161-0.154 0.294-0.334 0.394-0.533 0.051-0.134 0.051-0.283 0-0.417-0.021-0.080-0.062-0.154-0.118-0.215s-0.128-0.106-0.206-0.133c-0.193-0.065-0.401-0.065-0.594 0-0.157 0.041-0.304 0.117-0.429 0.221s-0.226 0.234-0.295 0.382l0.019 0.014zM22.029 27.413c0.030-0.051 0.049-0.108 0.056-0.168s0-0.119-0.019-0.176c-0.028-0.092-0.079-0.175-0.148-0.241-0.118-0.1-0.247-0.185-0.385-0.255-0.141 0.139-0.264 0.295-0.366 0.464-0.056 0.105-0.069 0.228-0.037 0.343 0.015 0.053 0.041 0.102 0.076 0.145s0.079 0.077 0.128 0.101c0.118 0.045 0.248 0.045 0.366 0 0.126-0.034 0.236-0.111 0.311-0.218l0.019 0.005z"></path>
<path d="M13.825 28.67l0.065-3.246h0.329l-0.051 2.597 1.317-2.161h0.162l1.234 2.198 0.046-2.583h0.329l-0.060 3.246h-0.283l-1.363-2.425-1.442 2.379-0.283-0.005z"></path>
<path d="M12.211 25.275c0.212 0.202 0.364 0.459 0.438 0.743s0.069 0.582-0.016 0.862c-0.076 0.287-0.228 0.548-0.441 0.756-0.206 0.203-0.465 0.344-0.747 0.408-0.297 0.067-0.607 0.058-0.9-0.028-0.292-0.071-0.56-0.217-0.779-0.422-0.209-0.2-0.358-0.453-0.431-0.733-0.071-0.289-0.066-0.591 0.015-0.878s0.236-0.546 0.448-0.755c0.203-0.202 0.456-0.346 0.733-0.417 0.296-0.067 0.604-0.057 0.895 0.028 0.295 0.075 0.565 0.225 0.784 0.436zM10.63 25.113c-0.227 0.053-0.434 0.169-0.598 0.334-0.171 0.17-0.293 0.383-0.352 0.617-0.065 0.232-0.065 0.477 0 0.71 0.055 0.226 0.172 0.432 0.339 0.594 0.175 0.171 0.39 0.294 0.626 0.357 0.236 0.060 0.483 0.060 0.719 0 0.227-0.056 0.435-0.171 0.603-0.334 0.17-0.171 0.292-0.384 0.352-0.617 0.065-0.234 0.065-0.481 0-0.714-0.059-0.225-0.178-0.43-0.343-0.594-0.176-0.171-0.393-0.293-0.631-0.352-0.234-0.065-0.48-0.065-0.714 0z"></path>
<path d="M7.119 22.957l0.125 1.275c0.080 0.034 0.157 0.073 0.232 0.116l0.756 0.436 0.51-0.9 0.301 0.172-1.623 2.797-1.057-0.608c-0.313-0.157-0.559-0.42-0.696-0.742-0.050-0.145-0.067-0.3-0.050-0.452s0.070-0.299 0.152-0.429c0.108-0.203 0.279-0.366 0.487-0.464 0.211-0.088 0.445-0.105 0.668-0.051l-0.135-1.363 0.329 0.213zM6.59 24.422c-0.109 0.027-0.211 0.076-0.301 0.144s-0.165 0.153-0.22 0.25c-0.056 0.097-0.091 0.205-0.105 0.317s-0.004 0.225 0.028 0.332c0.109 0.24 0.297 0.435 0.533 0.552l0.747 0.431 0.812-1.391-0.747-0.431c-0.215-0.161-0.479-0.241-0.747-0.227v0.023z"></path>
<path d="M4.373 20.782l0.209-0.209 1.6 1.646-2.319 2.263-1.544-1.595 0.213-0.209 1.312 1.35 0.793-0.802-1.15-1.197 0.223-0.213 1.173 1.206 0.863-0.839-1.373-1.401z"></path>
<path d="M0.928 18.959l0.111-0.64 0.218 0.032-0.125 0.659 0.617-0.227 0.074 0.204-0.626 0.213 0.515 0.436-0.148 0.167-0.496-0.464-0.116 0.659-0.223-0.042 0.13-0.659-0.621 0.223-0.070-0.181 0.621-0.218-0.515-0.431 0.153-0.167 0.501 0.436z"></path>
</svg>
